<?xml version="1.0" encoding="utf-8"?>
<!-- Generator: Adobe Illustrator 23.0.1, SVG Export Plug-In . SVG Version: 6.00 Build 0)  -->
<svg version="1.1" id="Laag_1" xmlns="http://www.w3.org/2000/svg" xmlns:xlink="http://www.w3.org/1999/xlink" x="0px" y="0px"
	 viewBox="0 0 2893 30" style="enable-background:new 0 0 2893 30;" xml:space="preserve">
<style type="text/css">
	.st0{fill:#DEB887;}
</style>
<polygon class="st0" points="30,30 60,30 90,30 120,30 150,30 180,30 210,30 240,30 270,30 300,30 330,30 360,30 390,30 420,30 
	450,30 480,30 510,30 540,30 570,30 600,30 630,30 660,30 690,30 720,30 750,30 780,30 810,30 840,30 870,30 900,30 930,30 960,30 
	990,30 1020,30 1050,30 1080,30 1110,30 1140,30 1170,30 1200,30 1230,30 1260,30 1290,30 1320,30 1350,30 1380,30 1410,30 1440,30 
	1470,30 1500,30 1530,30 1560,30 1590,30 1620,30 1650,30 1680,30 1710,30 1740,30 1770,30 1800,30 1830,30 1860,30 1890,30 
	1920,30 1950,30 1980,30 2010,30 2040,30 2070,30 2100,30 2130,30 2160,30 2190,30 2220,30 2250,30 2280,30 2310,30 2340,30 
	2370,30 2400,30 2430,30 2460,30 2490,30 2520,30 2550,30 2580,30 2610,30 2640,30 2670,30 2700,30 2730,30 2760,30 2790,30 
	2820,30 2850,30 2880,30 2910,30 2910,26 2902.5,13 2895,0 2887.5,13 2880,26 2872.5,13 2865,0 2857.5,13 2850,26 2842.5,13 2835,0 
	2827.5,13 2820,26 2812.5,13 2805,0 2797.5,13 2790,26 2782.5,13 2775,0 2767.5,13 2760,26 2752.5,13 2745,0 2737.5,13 2730,26 
	2722.5,13 2715,0 2707.5,13 2700,26 2692.5,13 2685,0 2677.5,13 2670,26 2662.5,13 2655,0 2647.5,13 2640,26 2632.5,13 2625,0 
	2617.5,13 2610,26 2602.5,13 2595,0 2587.5,13 2580,26 2572.5,13 2565,0 2557.5,13 2550,26 2542.5,13 2535,0 2527.5,13 2520,26 
	2512.5,13 2505,0 2497.5,13 2490,26 2482.5,13 2475,0 2467.5,13 2460,26 2452.5,13 2445,0 2437.5,13 2430,26 2422.5,13 2415,0 
	2407.5,13 2400,26 2392.5,13 2385,0 2377.5,13 2370,26 2362.5,13 2355,0 2347.5,13 2340,26 2332.5,13 2325,0 2317.5,13 2310,26 
	2302.5,13 2295,0 2287.5,13 2280,26 2272.5,13 2265,0 2257.5,13 2250,26 2242.5,13 2235,0 2227.5,13 2220,26 2212.5,13 2205,0 
	2197.5,13 2190,26 2182.5,13 2175,0 2167.5,13 2160,26 2152.5,13 2145,0 2137.5,13 2130,26 2122.5,13 2115,0 2107.5,13 2100,26 
	2092.5,13 2085,0 2077.5,13 2070,26 2062.5,13 2055,0 2047.5,13 2040,26 2032.5,13 2025,0 2017.5,13 2010,26 2002.5,13 1995,0 
	1987.5,13 1980,26 1972.5,13 1965,0 1957.5,13 1950,26 1942.5,13 1935,0 1927.5,13 1920,26 1912.5,13 1905,0 1897.5,13 1890,26 
	1882.5,13 1875,0 1867.5,13 1860,26 1852.5,13 1845,0 1837.5,13 1830,26 1822.5,13 1815,0 1807.5,13 1800,26 1792.5,13 1785,0 
	1777.5,13 1770,26 1762.5,13 1755,0 1747.5,13 1740,26 1732.5,13 1725,0 1717.5,13 1710,26 1702.5,13 1695,0 1687.5,13 1680,26 
	1672.5,13 1665,0 1657.5,13 1650,26 1642.5,13 1635,0 1627.5,13 1620,26 1612.5,13 1605,0 1597.5,13 1590,26 1582.5,13 1575,0 
	1567.5,13 1560,26 1552.5,13 1545,0 1537.5,13 1530,26 1522.5,13 1515,0 1507.5,13 1500,26 1492.5,13 1485,0 1477.5,13 1470,26 
	1462.5,13 1455,0 1447.5,13 1440,26 1432.5,13 1425,0 1417.5,13 1410,26 1402.5,13 1395,0 1387.5,13 1380,26 1372.5,13 1365,0 
	1357.5,13 1350,26 1342.5,13 1335,0 1327.5,13 1320,26 1312.5,13 1305,0 1297.5,13 1290,26 1282.5,13 1275,0 1267.5,13 1260,26 
	1252.5,13 1245,0 1237.5,13 1230,26 1222.5,13 1215,0 1207.5,13 1200,26 1192.5,13 1185,0 1177.5,13 1170,26 1162.5,13 1155,0 
	1147.5,13 1140,26 1132.5,13 1125,0 1117.5,13 1110,26 1102.5,13 1095,0 1087.5,13 1080,26 1072.5,13 1065,0 1057.5,13 1050,26 
	1042.5,13 1035,0 1027.5,13 1020,26 1012.5,13 1005,0 997.5,13 990,26 982.5,13 975,0 967.5,13 960,26 952.5,13 945,0 937.5,13 
	930,26 922.5,13 915,0 907.5,13 900,26 892.5,13 885,0 877.5,13 870,26 862.5,13 855,0 847.5,13 840,26 832.5,13 825,0 817.5,13 
	810,26 802.5,13 795,0 787.5,13 780,26 772.5,13 765,0 757.5,13 750,26 742.5,13 735,0 727.5,13 720,26 712.5,13 705,0 697.5,13 
	690,26 682.5,13 675,0 667.5,13 660,26 652.5,13 645,0 637.5,13 630,26 622.5,13 615,0 607.5,13 600,26 592.5,13 585,0 577.5,13 
	570,26 562.5,13 555,0 547.5,13 540,26 532.5,13 525,0 517.5,13 510,26 502.5,13 495,0 487.5,13 480,26 472.5,13 465,0 457.5,13 
	450,26 442.5,13 435,0 427.5,13 420,26 412.5,13 405,0 397.5,13 390,26 382.5,13 375,0 367.5,13 360,26 352.5,13 345,0 337.5,13 
	330,26 322.5,13 315,0 307.5,13 300,26 292.5,13 285,0 277.5,13 270,26 262.5,13 255,0 247.5,13 240,26 232.5,13 225,0 217.5,13 
	210,26 202.5,13 195,0 187.5,13 180,26 172.5,13 165,0 157.5,13 150,26 142.5,13 135,0 127.5,13 120,26 112.5,13 105,0 97.5,13 
	90,26 82.5,13 75,0 67.5,13 60,26 52.5,13 45,0 37.5,13 30,26 22.5,13 15,0 7.5,13 0,26 0,30 "/>
</svg>
