<?xml version="1.0" encoding="utf-8"?>
<!-- Generator: Adobe Illustrator 23.0.1, SVG Export Plug-In . SVG Version: 6.00 Build 0)  -->
<svg version="1.1" id="Laag_1" xmlns="http://www.w3.org/2000/svg" xmlns:xlink="http://www.w3.org/1999/xlink" x="0px" y="0px"
	 viewBox="0 0 2893 30" style="enable-background:new 0 0 2893 30;" xml:space="preserve">
<style type="text/css">
	.st0{fill:#DEB887;}
</style>
<polygon class="st0" points="2880,0 2850,0 2820,0 2790,0 2760,0 2730,0 2700,0 2670,0 2640,0 2610,0 2580,0 2550,0 2520,0 2490,0 
	2460,0 2430,0 2400,0 2370,0 2340,0 2310,0 2280,0 2250,0 2220,0 2190,0 2160,0 2130,0 2100,0 2070,0 2040,0 2010,0 1980,0 1950,0 
	1920,0 1890,0 1860,0 1830,0 1800,0 1770,0 1740,0 1710,0 1680,0 1650,0 1620,0 1590,0 1560,0 1530,0 1500,0 1470,0 1440,0 1410,0 
	1380,0 1350,0 1320,0 1290,0 1260,0 1230,0 1200,0 1170,0 1140,0 1110,0 1080,0 1050,0 1020,0 990,0 960,0 930,0 900,0 870,0 840,0 
	810,0 780,0 750,0 720,0 690,0 660,0 630,0 600,0 570,0 540,0 510,0 480,0 450,0 420,0 390,0 360,0 330,0 300,0 270,0 240,0 210,0 
	180,0 150,0 120,0 90,0 60,0 30,0 0,0 0,4 7.5,17 15,30 22.5,17 30,4 37.5,17 45,30 52.5,17 60,4 67.5,17 75,30 82.5,17 90,4 
	97.5,17 105,30 112.5,17 120,4 127.5,17 135,30 142.5,17 150,4 157.5,17 165,30 172.5,17 180,4 187.5,17 195,30 202.5,17 210,4 
	217.5,17 225,30 232.5,17 240,4 247.5,17 255,30 262.5,17 270,4 277.5,17 285,30 292.5,17 300,4 307.5,17 315,30 322.5,17 330,4 
	337.5,17 345,30 352.5,17 360,4 367.5,17 375,30 382.5,17 390,4 397.5,17 405,30 412.5,17 420,4 427.5,17 435,30 442.5,17 450,4 
	457.5,17 465,30 472.5,17 480,4 487.5,17 495,30 502.5,17 510,4 517.5,17 525,30 532.5,17 540,4 547.5,17 555,30 562.5,17 570,4 
	577.5,17 585,30 592.5,17 600,4 607.5,17 615,30 622.5,17 630,4 637.5,17 645,30 652.5,17 660,4 667.5,17 675,30 682.5,17 690,4 
	697.5,17 705,30 712.5,17 720,4 727.5,17 735,30 742.5,17 750,4 757.5,17 765,30 772.5,17 780,4 787.5,17 795,30 802.5,17 810,4 
	817.5,17 825,30 832.5,17 840,4 847.5,17 855,30 862.5,17 870,4 877.5,17 885,30 892.5,17 900,4 907.5,17 915,30 922.5,17 930,4 
	937.5,17 945,30 952.5,17 960,4 967.5,17 975,30 982.5,17 990,4 997.5,17 1005,30 1012.5,17 1020,4 1027.5,17 1035,30 1042.5,17 
	1050,4 1057.5,17 1065,30 1072.5,17 1080,4 1087.5,17 1095,30 1102.5,17 1110,4 1117.5,17 1125,30 1132.5,17 1140,4 1147.5,17 
	1155,30 1162.5,17 1170,4 1177.5,17 1185,30 1192.5,17 1200,4 1207.5,17 1215,30 1222.5,17 1230,4 1237.5,17 1245,30 1252.5,17 
	1260,4 1267.5,17 1275,30 1282.5,17 1290,4 1297.5,17 1305,30 1312.5,17 1320,4 1327.5,17 1335,30 1342.5,17 1350,4 1357.5,17 
	1365,30 1372.5,17 1380,4 1387.5,17 1395,30 1402.5,17 1410,4 1417.5,17 1425,30 1432.5,17 1440,4 1447.5,17 1455,30 1462.5,17 
	1470,4 1477.5,17 1485,30 1492.5,17 1500,4 1507.5,17 1515,30 1522.5,17 1530,4 1537.5,17 1545,30 1552.5,17 1560,4 1567.5,17 
	1575,30 1582.5,17 1590,4 1597.5,17 1605,30 1612.5,17 1620,4 1627.5,17 1635,30 1642.5,17 1650,4 1657.5,17 1665,30 1672.5,17 
	1680,4 1687.5,17 1695,30 1702.5,17 1710,4 1717.5,17 1725,30 1732.5,17 1740,4 1747.5,17 1755,30 1762.5,17 1770,4 1777.5,17 
	1785,30 1792.5,17 1800,4 1807.5,17 1815,30 1822.5,17 1830,4 1837.5,17 1845,30 1852.5,17 1860,4 1867.5,17 1875,30 1882.5,17 
	1890,4 1897.5,17 1905,30 1912.5,17 1920,4 1927.5,17 1935,30 1942.5,17 1950,4 1957.5,17 1965,30 1972.5,17 1980,4 1987.5,17 
	1995,30 2002.5,17 2010,4 2017.5,17 2025,30 2032.5,17 2040,4 2047.5,17 2055,30 2062.5,17 2070,4 2077.5,17 2085,30 2092.5,17 
	2100,4 2107.5,17 2115,30 2122.5,17 2130,4 2137.5,17 2145,30 2152.5,17 2160,4 2167.5,17 2175,30 2182.5,17 2190,4 2197.5,17 
	2205,30 2212.5,17 2220,4 2227.5,17 2235,30 2242.5,17 2250,4 2257.5,17 2265,30 2272.5,17 2280,4 2287.5,17 2295,30 2302.5,17 
	2310,4 2317.5,17 2325,30 2332.5,17 2340,4 2347.5,17 2355,30 2362.5,17 2370,4 2377.5,17 2385,30 2392.5,17 2400,4 2407.5,17 
	2415,30 2422.5,17 2430,4 2437.5,17 2445,30 2452.5,17 2460,4 2467.5,17 2475,30 2482.5,17 2490,4 2497.5,17 2505,30 2512.5,17 
	2520,4 2527.5,17 2535,30 2542.5,17 2550,4 2557.5,17 2565,30 2572.5,17 2580,4 2587.5,17 2595,30 2602.5,17 2610,4 2617.5,17 
	2625,30 2632.5,17 2640,4 2647.5,17 2655,30 2662.5,17 2670,4 2677.5,17 2685,30 2692.5,17 2700,4 2707.5,17 2715,30 2722.5,17 
	2730,4 2737.5,17 2745,30 2752.5,17 2760,4 2767.5,17 2775,30 2782.5,17 2790,4 2797.5,17 2805,30 2812.5,17 2820,4 2827.5,17 
	2835,30 2842.5,17 2850,4 2857.5,17 2865,30 2872.5,17 2880,4 2887.5,17 2895,30 2902.5,17 2910,4 2910,0 "/>
</svg>
